<svg xmlns="http://www.w3.org/2000/svg" focusable="false" viewBox="0 0 100 100"><path fill="#fff042" d="M33.469 41.398c.471 1.265.875 2.609.875 3.969V59.43h24.344c-1.217-1.256-1.185-2.843-.876-3.876a4.045 4.045 0 0 1-.906-.593c-.952.701-3.865 2.813-4.625 3.343l-.156.094-9.563-1.718h-.187c-.23 0-.57-.019-.937-.063-.103.431-.481.75-.907.75l-.125-.031a.947.947 0 0 1-.625-.375.885.885 0 0 1-.156-.688l.031-.219c-.985-.693-1.903-2.24-1.5-3.874l.032-.188.156-.094.437-.25-.719-.125a.454.454 0 0 1-.374-.531c.044-.259.275-.456.531-.406l1.656.281.156-5.844L42.5 42.43l1.531 3.218-1.625 5.625 1.469.219c.257.04.414.267.375.531a.48.48 0 0 1-.469.407h-.062l-1.188-.188.063.094c.125.262.398.449.562.531l7.282.094c.309-.301 1.087-1.02 1.874-1.813a3.94 3.94 0 0 1-2.562-3.25c-1.002-.427-1.711-1.076-2.094-1.906-.467-1.03-.282-2.062-.156-2.562-.972-.354-1.987-.996-3.031-2.032h-11zm.875 18.969v11.781c0 4.816 3.481 7.844 8.625 7.844 4.296 0 5.433.164 7.031 1.75 1.102-1.099 2.035-1.505 3.906-1.656l.032-.188 1-3.062c-.055-.069-1.688-1.875-1.688-1.875-.64.212-1.161.219-2.062.219-.928 0-1.99-.099-3.126-.313a1.305 1.305 0 0 0-.312-.031c-.14 0-.151.025-.188.094l-.187.312-.375.594-.688-.156-3-.719-.406.687.063.063.375.406-.156.531c-.221.686-.938 1.498-1.157 1.719l-.75.781-.687-.844-.532-.656c-.54-.605-.648-1.529-.343-2.5l-.031.032-.844.343-.406-.843-.25-.594a2.83 2.83 0 0 1 .937-3.438l2.437-1.375 2.282.469c.055-.221.153-1.017.218-1.219l-.124-.031-1.344.5-1.282-.875s-.485-.487-.031-.969l1.219-1.875-3.125-3.937 4.813 1.968.312-.374.656-.782.75.688c.209.202.316.47.375.718 1.328.518 3.728 2.018 3.938 4.5l-.75.313v.031c.171.203.3.274.343.282l3.469.343.313-.093c.428-.146 1.05-.344 1.812-.344.621 0 1.235.137 1.813.406.211-.08.479-.136.781-.156l.156-.032c1.842 0 2.766 1.401 3.5 2.5l.375.532a48.774 48.774 0 0 1 1.5 2.312l.375.594-.437.531c-.358.414-.921.907-1.844.907a3.35 3.35 0 0 1-.625-.063c-.196-.036-.36-.116-.531-.187l-.094.593-.625 3.157c3.61-.889 5.906-3.629 5.906-7.532V60.367H34.344z"></path><path d="M50.001 5.272l-2.875 2.844-2.969-1.531-1.562 3.281-2.938-.313c1.647 2.559 2.125 5.438 2.125 5.438 1.634-1.296 4.554-2.5 8.219-2.5 3.671 0 6.596 1.204 8.219 2.5 0 0 .51-2.878 2.156-5.438l-2.969.313-1.562-3.281-2.969 1.531-2.875-2.844zm0 1.625l2.062 2.063.594.562.75-.375 1.906-1 1.063 2.219.344.75.812-.094.781-.093a18.732 18.732 0 0 0-.812 2.218c-2.07-1.152-4.756-1.812-7.5-1.812-2.731 0-5.423.66-7.5 1.812a19.281 19.281 0 0 0-.812-2.218l.781.093.812.094.375-.75 1.032-2.219 1.906 1 .75.375.594-.562 2.062-2.063zm0 7.438c-4.526 0-8.625 2.22-8.625 4.656l.094.594 1.781 10.375-1.812 1.031-4.688 2.75c-.042.022-1.051.548-1.531.875-1.789 1.241-2.164 3.064-1.125 3.813.255-1.478 1.406-3.032 3.594-3.032 1.574 0 2.782.814 3.75 2.032.25.308.498.646.718 1 .272.446.542.843.813 1.218H30.876c.889 1.788 1.719 3.663 1.719 5.719v26.781c0 6.483 4.983 9.594 10.375 9.594 4.167 0 4.732-.197 7.031 2.094 2.288-2.291 2.861-2.094 7.031-2.094 5.395 0 10.375-3.111 10.375-9.594V45.366c0-2.056.826-3.931 1.719-5.719H57.032c.27-.375.54-.772.813-1.218.223-.354.474-.692.718-1 .977-1.222 2.175-2.032 3.75-2.032 2.186 0 3.335 1.554 3.594 3.032 1.039-.749.673-2.572-1.125-3.813-.482-.334-1.531-.875-1.531-.875l-4.688-2.75-1.812-1.031 1.812-10.375.094-.594c0-2.436-4.099-4.656-8.625-4.656h-.031zm-16.062 1.312c-1.499 0-4.353.364-6.688 2.782-1.947 2.013-2.194 4.147-2.094 5.531l-.594.031h-.218c-2.93 0-4.321-3.097-4.375-3.219l-.813-1.937-1.344 1.656c-.074.099-2.005 2.517-1.531 5.562.315 2.024 1.598 3.753 3.781 5.188.238.152.381.298.5.406-4.12 1.338-6.417 4.26-8.843 7.344l-.344.438c-3.708 4.719-8.966 4.874-9.594 4.874l-1.781-.062.531 1.719c.063.206 1.656 5.031 6.406 5.031h.219c.503-.014.974-.111 1.375-.188-.197 2.634-1.165 7.501-5.531 9.313l-1.344.563.719 1.25c.07.113 1.706 2.874 5.375 2.874 1.604-.004 2.848-.422 3.781-.906a22.354 22.354 0 0 0 1 4.438c1.328 3.952.078 6.733.031 6.844l-.656 1.374 1.5.376c.098.024 1.016.25 2.094.25.504 0 .954-.026 1.375-.126a6.215 6.215 0 0 0 2.656-1.343c.402 1.237 1.084 2.636 2.281 3.875 2.038 2.092 4.986 3.156 8.813 3.156l2.313-.031-1.282-1.969c-.003-.012-.733-1.144-.968-4.25-.276-3.72-1.705-5.909-3.094-7.156.401-.191.78-.435 1.094-.719 2.04-1.834 1.951-3.984 1.937-4.219l-.063-1.156-1.187-.031c-3.113-.05-5.267-.957-7.031-3a9.863 9.863 0 0 1-1.032-1.438c.971.298 2.156.5 3.563.5.377 0 .773-.004 1.187-.031 2.192-.188 3.68-1.512 3.844-1.656l1.219-1.094-1.375-.906c-3.098-1.981-6.277-5.726-3.844-12.313 1.576-4.282 5.206-8.157 11.125-11.875 1.997-1.262 3.094-2.737 3.094-4.156 0-2.194-1.812-3.07-3.156-3.688-.655-.313-1.355-.616-1.688-1-1.041-1.205-.153-3.529.813-4.781l1.25-1.625-2.032-.375c-.058-.006-.571-.125-1.374-.125zm32.124 0c-.8 0-1.316.119-1.374.125l-2 .375 1.218 1.625c.966 1.252 1.852 3.576.813 4.781-.334.384-1.004.687-1.657 1-1.344.618-3.187 1.494-3.187 3.688 0 1.419 1.097 2.894 3.094 4.156 5.91 3.718 9.549 7.593 11.125 11.875 2.437 6.587-.726 10.332-3.813 12.313l-1.406.906 1.219 1.094c.163.143 1.652 1.468 3.844 1.656.415.027.815.031 1.187.031 1.403 0 2.591-.202 3.563-.5a9.121 9.121 0 0 1-1 1.438c-1.765 2.043-3.942 2.95-7.063 3l-1.156.031-.094 1.156c-.011.235-.104 2.385 1.937 4.219.313.284.697.528 1.094.719-1.386 1.247-2.79 3.436-3.062 7.156-.231 3.106-.959 4.238-.969 4.25l-1.281 1.969 2.312.031c3.829 0 6.75-1.064 8.782-3.156 1.2-1.239 1.876-2.638 2.281-3.875a6.256 6.256 0 0 0 2.656 1.343c.425.1.901.126 1.406.126 1.081 0 1.993-.226 2.094-.25l1.469-.376-.656-1.374c-.048-.111-1.297-2.892.031-6.844.571-1.711.889-3.245 1.031-4.438.932.485 2.169.902 3.781.906 3.663 0 5.272-2.761 5.344-2.874l.719-1.25-1.344-.563c-4.365-1.812-5.306-6.679-5.5-9.313.394.077.835.174 1.344.188h.218c4.748 0 6.342-4.825 6.407-5.031l.531-1.719-1.781.062c-.627 0-5.881-.155-9.594-4.874l-.344-.438c-2.427-3.084-4.729-6.006-8.843-7.344.118-.108.297-.254.531-.406 2.183-1.435 3.462-3.164 3.781-5.188.467-3.045-1.477-5.463-1.562-5.562l-1.344-1.656-.813 1.937c-.055.122-1.453 3.219-4.375 3.219h-.218l-.563-.031c.103-1.384-.15-3.519-2.094-5.531-2.337-2.418-5.221-2.782-6.719-2.782zm-16.062.25c3.644.004 6.38 1.192 6.969 2.594l-6.969 2.75-6.969-2.75c.593-1.402 3.331-2.59 6.969-2.594zm-16.062 1.032c.705 0 1.156.062 1.156.062-1.318 1.727-2.275 4.606-.75 6.375 1.319 1.521 4.531 1.61 4.531 3.875 0 .961-.891 2.058-2.5 3.062-4.844 3.05-9.656 7.111-11.656 12.532-2.495 6.764.324 11.238 4.343 13.812 0 0-1.265 1.165-3.093 1.313-.372.036-.748.062-1.094.062-3.851 0-5.844-1.812-5.844-1.812s.35 2.492 2.344 4.812c1.863 2.141 4.292 3.417 8 3.469 0 0 .108 1.73-1.531 3.219-1.053.941-3.469 1.219-3.469 1.219s4.531.916 5.031 7.624c.272 3.636 1.188 4.907 1.188 4.907h-.063c-10.542 0-10.281-9.031-10.281-9.031s-.718 2.676-3.656 3.374a4.313 4.313 0 0 1-1.094.126c-.946 0-1.781-.219-1.781-.219s1.528-3.237 0-7.781c-1.264-3.77-1.063-6.563-1.063-6.563s-1.414 2.136-4.937 2.156h-.031c-2.931 0-4.219-2.219-4.219-2.219 7.023-2.917 6.344-12.343 6.344-12.343s-.906.686-2.688.75h-.188c-3.874 0-5.188-4.157-5.188-4.157h.094c.716 0 6.464-.14 10.531-5.312 2.68-3.401 4.858-6.416 9.187-7.594l.438-.062.094-.438c.12-.661-.315-1.268-1.344-1.937-5.983-3.918-1.938-8.938-1.938-8.938s1.699 4 5.532 4h.281c.43-.024.86-.036 1.281-.125l.719-.156s-1.106-2.966 1.531-5.688c1.982-2.054 4.389-2.374 5.782-2.374zm32.124 0c1.394 0 3.801.32 5.782 2.374 2.631 2.722 1.562 5.688 1.562 5.688l.688.156c.421.089.846.102 1.281.125h.281c3.823 0 5.532-4 5.532-4s4.077 5.02-1.907 8.938c-1.029.669-1.495 1.276-1.375 1.937l.094.438.438.062c4.335 1.177 6.508 4.193 9.187 7.594 4.071 5.172 9.852 5.312 10.563 5.312h.062s-1.316 4.157-5.188 4.157h-.187c-1.778-.064-2.687-.75-2.687-.75s-.684 9.426 6.343 12.343c0 0-1.286 2.219-4.219 2.219h-.031c-3.52-.02-4.937-2.156-4.937-2.156s.205 2.792-1.063 6.563c-1.528 4.544 0 7.781 0 7.781s-.804.219-1.75.219c-.362 0-.737-.033-1.093-.126-2.94-.698-3.688-3.374-3.688-3.374s.26 9.031-10.281 9.031h-.063s.914-1.271 1.188-4.907c.501-6.708 5.062-7.624 5.062-7.624s-2.449-.278-3.5-1.219c-1.642-1.489-1.5-3.219-1.5-3.219 3.709-.052 6.118-1.327 7.969-3.469 2.006-2.319 2.344-4.812 2.344-4.812s-1.989 1.812-5.844 1.812c-.339 0-.722-.026-1.094-.062-1.825-.148-3.062-1.313-3.062-1.313 4.014-2.574 6.809-7.049 4.312-13.812-2.001-5.421-6.784-9.482-11.625-12.532-1.609-1.004-2.531-2.101-2.531-3.062 0-2.265 3.243-2.354 4.563-3.875 1.524-1.769.571-4.648-.75-6.375 0 0 .423-.062 1.124-.062zm-22.937 3.25l6.375 2.156v10l-4.688-2.469-1.687-9.687zm13.75 0l-1.687 9.687-4.688 2.469v-10l6.375-2.156zm-11.625 3.406s.011.927 1.312 1.937c.788.624 1.236.709 1.25.719l.313.156v-1.594l-2.875-1.218zm9.531 0l-2.906 1.218v1.594l.313-.156c.015-.01.464-.095 1.25-.719 1.305-1.01 1.343-1.937 1.343-1.937zm22.875 4s-4.041 2.969-12.281.281c2.279 1.48 6.702 3.556 10.75 6.937 10.115 8.89 2.906 17.563 2.906 17.563 3.635-3.795 3.758-7.837 2.688-11.156 1.914 3.186 3.159 7.042 2.969 11.812-.279 6.832-4.05 12.753-8 17.5-1.9 2.303-2.313 5.125-2.313 5.125s.771-2.492 2.969-5.062c4.234-4.958 7.838-10.111 8.312-17.532.437 1.348 2.265 5.09 5.125 6.5 0 0-3.597-2.17-5.219-10.562v-.062c-1.087-8.565-7.319-14.737-14.25-18.5-.641-.346-1.237-.627-1.812-.907 2.114.329 5.527.343 8.156-1.937zm-55.094.125c2.604 2.133 5.903 2.134 7.969 1.812-.571.28-1.175.561-1.812.907-6.95 3.773-13.212 9.964-14.281 18.562-1.62 8.392-5.188 10.562-5.188 10.562 2.858-1.41 4.656-5.152 5.094-6.5.478 7.421 4.109 12.574 8.344 17.532 2.196 2.57 2.968 5.062 2.968 5.062s-.435-2.822-2.344-5.125c-3.943-4.746-7.693-10.668-7.968-17.5-.198-4.769 1.02-8.625 2.937-11.812-1.035 3.215-.91 7.089 2.407 10.781-1.248-1.781-5.668-9.409 3.187-17.188 4.046-3.381 8.471-5.457 10.75-6.937-7.207 2.352-11.18.373-12.063-.156zm-10.281 1.343c-1.412 0-2.732.585-3.812 1.688-2.63 2.684-4.977 2.904-5.063 2.906l-1.844.094.75 1.688c.757 1.677 2.773 2.906 4.75 2.906.509 0 .999-.09 1.469-.25 1.324-.439 2.174-1.498 3.063-2.594.909-1.12 1.916-2.369 3.687-3.312l1.813-1-1.688-1.188c-.141-.089-1.405-.938-3.125-.938zm75.438 0c-1.722 0-2.985.849-3.125.938l-1.688 1.188 1.813 1c1.77.943 2.814 2.191 3.719 3.312.889 1.095 1.741 2.156 3.062 2.594.468.16.961.25 1.469.25 1.98 0 3.964-1.228 4.719-2.906l.75-1.688-1.844-.094c-.087-.002-2.435-.222-5.063-2.906-1.08-1.102-2.404-1.688-3.812-1.688zm-75.438 1.282c1.366 0 2.407.718 2.407.718-3.693 1.968-4.453 5.134-6.563 5.844-.348.124-.702.156-1.063.156-1.551 0-3.082-1.009-3.594-2.156 0 0 2.85-.175 5.906-3.281.978-1.007 2.017-1.281 2.906-1.281zm75.438 0c.884 0 1.931.274 2.906 1.281 3.06 3.106 5.906 3.281 5.906 3.281-.517 1.146-2.009 2.156-3.562 2.156-.359 0-.737-.032-1.094-.156-2.105-.71-2.835-3.877-6.531-5.844 0 0 1.001-.718 2.375-.718zm-43.594.906l5.875 3.188h.031l5.875-3.188 2.188 1.25 2.125 1.25h.031l.562.312c-1.208.335-2.13.958-2.906 1.75l-.094.063c-.177.19-.361.414-.531.625l-.093.125c-.165.213-.32.43-.469.656l-.094.125c-.177.265-.331.52-.5.813-1.524 2.624-3.964 4.215-6.125 4.219-2.159-.004-4.604-1.595-6.125-4.219a16.921 16.921 0 0 0-.5-.813l-.094-.156c-.148-.219-.286-.424-.437-.625l-.125-.156c-.165-.203-.328-.377-.5-.563l-.094-.125a6.299 6.299 0 0 0-2.906-1.719l.531-.312h.031l2.125-1.25 2.219-1.25zm3.5 4.375v1.719c.589-.716 1.719-.563 1.719-.563v2.438s-.039 1.226-.469 1.75h2.469c-.424-.524-.469-1.75-.469-1.75v-2.438s1.135-.153 1.719.563v-1.719h-4.969zM33.47 41.397h11c1.044 1.037 2.06 1.677 3.031 2.032-.126.499-.311 1.532.156 2.562.383.83 1.092 1.48 2.094 1.906a3.938 3.938 0 0 0 2.562 3.25c-.787.793-1.565 1.511-1.874 1.813l-7.282-.094c-.164-.082-.437-.269-.562-.531l-.063-.094 1.188.188h.062a.479.479 0 0 0 .469-.407c.039-.263-.119-.49-.375-.531l-1.469-.219 1.625-5.625-1.531-3.218-2.469 2.593-.156 5.844-1.656-.281c-.256-.05-.487.147-.531.406a.453.453 0 0 0 .374.531l.719.125-.437.25-.156.094-.032.188c-.402 1.635.516 3.18 1.5 3.874l-.031.219a.881.881 0 0 0 .156.688.945.945 0 0 0 .625.375l.125.031c.426 0 .803-.32.907-.75.366.044.707.063.937.063h.187l9.563 1.718.156-.094c.761-.531 3.673-2.642 4.625-3.343.262.225.553.424.906.593-.308 1.033-.311 2.621.907 3.876H34.345V45.366c0-1.36-.404-2.704-.875-3.969zm22.093 0h10.969c-.479 1.265-.875 2.609-.875 3.969v8.813c-1.836-.309-2.055-2.29-2.062-2.376l-.032-.406-.406-.031c-.798-.077-1.304-.41-1.75-.844-.9-.9-.908-2.362-.906-2.375-.013.075-.979 1.441.156 2.938.477.629 1.168 1.003 2.063 1.156.21 1.097 1.011 2.671 2.937 2.906v4.282h-5.406c-2.498-1.39-1.454-3.833-1.406-3.938l.218-.469-.468-.187c-2.706-1.003-1.974-3.696-1.938-3.813l.125-.375-.375-.187c-2.232-1.036-1.936-3.82-1.906-3.938-.688.558-.942 1.699-.469 2.813a27.76 27.76 0 0 1-.969 1.031 3.017 3.017 0 0 1-2.374-2.813v-.343l-.313-.094c-.903-.334-1.537-.858-1.844-1.531-.342-.746-.219-1.53-.125-1.906.266.06.53.104.782.124.26.026.544.063.812.063h.031c.268 0 .52-.037.781-.063 1.442-.142 3.069-.738 4.75-2.406zM42.22 44.085l.781 1.656-1.531 5.375-.657-.094.157-5.593 1.25-1.344zm12.343 6.094c.281.352.633.674 1.094.968-.157.855-.108 2.07.594 3.094-.965.712-3.441 2.526-4.344 3.156l-8.687-1.562.062-.219a7.673 7.673 0 0 0 .25-1.813l7.281.126.157-.126c.111-.11 2.415-2.34 3.593-3.624zm-13.906 1.843c.491 0 .828.224 1.063.719.205.432.584.711.843.875-.008.404-.049 1.04-.156 1.594l-.094.343-.062.188c-.384 0-1.132-.057-1.75-.281-.682-.252-1.703-1.495-1.469-2.875.295-.181.985-.563 1.625-.563zm-6.312 8.344h31.312v11.781c0 3.904-2.296 6.643-5.906 7.532l.625-3.157.094-.593c.171.071.335.15.531.187.227.042.435.063.625.063.923 0 1.486-.493 1.844-.907l.437-.531-.375-.594a46.89 46.89 0 0 0-1.5-2.312l-.375-.532c-.734-1.098-1.657-2.5-3.5-2.5l-.156.032c-.303.019-.57.076-.781.156a4.27 4.27 0 0 0-1.813-.406c-.763 0-1.384.199-1.812.344l-.313.093-3.469-.343c-.043-.009-.172-.079-.343-.282v-.031l.75-.313c-.211-2.482-2.61-3.983-3.938-4.5-.058-.248-.166-.515-.375-.718l-.75-.688-.656.782-.312.374-4.813-1.968 3.125 3.937-1.219 1.875c-.453.481.031.969.031.969l1.282.875 1.344-.5.124.031c-.064.202-.163.998-.218 1.219l-2.282-.469-2.437 1.375c-1.242.913-1.399 2.435-.937 3.469l.25.563.406.843.844-.343.031-.032c-.305.972-.197 1.896.343 2.5l.532.656.656.844.781-.781c.22-.22.937-1.032 1.157-1.719l.156-.531-.375-.406-.063-.063.406-.687 3 .719.688.156.375-.594.187-.312c.037-.069.049-.094.188-.094.107 0 .198.005.312.031 1.135.214 2.197.313 3.126.313.9 0 1.421-.007 2.062-.219 0 0 1.632 1.805 1.688 1.875l-1 3.062-.032.188c-1.871.15-2.805.556-3.906 1.656-1.599-1.586-2.735-1.75-7.031-1.75-5.144 0-8.625-3.027-8.625-7.844V60.366zm7.562 2.813l2.563 1.281.781-.938c.215.21.125.75.125.75.795.019 3.037 1.273 3.156 4.157v.281l.063.093c.156.218.573.761 1.125.813l3.531.344h.031c.386 0 1.137-.438 2.125-.438.538 0 1.143.129 1.782.531 0 0 .323-.255.843-.281h.125c1.581 0 2.245 1.439 3.094 2.625.638.905 1.469 2.25 1.469 2.25-.316.373-.603.563-1.094.563-.135 0-.27.001-.437-.031-1.697-.314-1.939-3.82-2.907-4.094h-.156c-.312 0-.469.281-.469.281.442 1.19.211 1.646.688 2.563.355.679.958 1.235 1.218 1.5 0 0-.05.521-.124.906l-.688 3.531c-.432.061-.874.106-1.344.125l.719-3.406c.213-1.005-2.51-1.304-3.844-3.282-.651.733-1.86.938-3.093.938-1.125 0-2.253-.178-2.938-.312a3.062 3.062 0 0 0-.5-.032c-.394 0-.751.116-1 .532l-.219.312-3.656-.844-.937 1.5c-.129.247-.115.456.093.688l.219.281c-.172.536-.938 1.344-.938 1.344l-.531-.688c-.433-.483-.357-1.367.094-2.187l1.469-2.469 3.094.437-.469-1.093c-.652-1.461.331-3.304.437-4.375-.036.324-.342.375-.687.375-.315 0-.642-.063-.875-.063a.39.39 0 0 0-.219.063l-.844.5-.656-.594a.445.445 0 0 1 .063-.563l1.562-1.75-1.844-2.124zm2.344 2.312a.329.329 0 0 0-.219.281.324.324 0 0 0 .313.344.312.312 0 0 0 .344-.281.336.336 0 0 0-.313-.344h-.125zm-2.594 4.719l2.094.437c-.039.666.375 1.188.375 1.188l-2.219-.438-1.312.906c-.224.156-.241.453-.125.719l.187.407c-.108.355-1.344.843-1.344.843l-.25-.562a1.907 1.907 0 0 1 .626-2.281l1.968-1.219zm13.25 5.062a27.336 27.336 0 0 0 2.469 1.313c-.064.105-1.187 3.406-1.187 3.406-.476 0-.921.016-1.313.031l1.031-3.219c.162-.445-.662-1.028-1-1.531zm-19.75 7l.532 2.031.531 1.844-1.813.688-2.031.75c2.299 1.11 5.49 2.733 8.406 3.531l-.687 1.875s3.714 1.703 9.875 1.719h.062c6.169-.016 9.875-1.719 9.875-1.719l-.687-1.875c2.917-.798 6.117-2.421 8.406-3.531l-2-.75-1.813-.688.5-1.844.563-2.031s-3.215 1.73-7.719 3.031c-1.277.366-2.25.532-2.25.532v1.375s-2.411.406-4.844.406h-.124c-2.436 0-4.844-.406-4.844-.406v-1.375s-.975-.166-2.25-.532c-4.503-1.301-7.688-3.031-7.688-3.031zm1.469 1.594c1.308.74 4.24 1.858 5.937 2.375l-1.437 3.938c-2.623-.722-4.803-1.569-6.594-2.469l2.969-.969-.875-2.875zm26.781 0l-.875 2.875 2.938.969c-1.793.9-3.962 1.747-6.594 2.469l-1.406-3.938c1.7-.517 4.627-1.635 5.937-2.375zM43.22 87.741c1.461.426 4.514.889 6.719.875h.124c2.205.014 5.251-.449 6.719-.875l1.75 4.781c-1.158.413-5.092 1.188-8.531 1.188-3.446 0-7.372-.775-8.531-1.188l1.75-4.781z"></path></svg>